<?xml version="1.0" standalone="no"?>
<!DOCTYPE svg PUBLIC "-//W3C//DTD SVG 20010904//EN"
 "http://www.w3.org/TR/2001/REC-SVG-20010904/DTD/svg10.dtd">
<svg version="1.0" xmlns="http://www.w3.org/2000/svg"
 width="332.000000pt" height="384.000000pt" viewBox="0 0 332.000000 384.000000"
 preserveAspectRatio="xMidYMid meet">

<g transform="translate(0.000000,384.000000) scale(0.100000,-0.100000)"
fill="#000000" stroke="none">
<path d="M1975 3342 c-33 -8 -67 -17 -75 -20 -8 -3 -22 -5 -30 -4 -8 1 -10 -1
-4 -4 8 -3 5 -17 -8 -42 -34 -66 -6 -175 81 -320 l49 -81 -94 87 c-54 49 -103
105 -114 128 -37 75 -22 148 42 198 18 14 27 26 20 26 -22 0 -55 -20 -97 -61
-22 -21 -75 -66 -118 -100 -142 -112 -259 -261 -342 -434 -52 -110 -245 -569
-245 -584 0 -12 -14 -14 -47 -5 -18 5 -20 10 -12 31 8 22 7 24 -13 17 -62 -19
-424 -212 -440 -234 -20 -28 -175 -423 -184 -469 -5 -26 -2 -32 26 -46 17 -9
33 -15 34 -13 26 38 246 272 260 277 12 3 62 5 111 3 l91 -3 10 -55 10 -54
-43 -26 c-69 -40 -157 -133 -192 -202 -52 -103 -62 -162 -64 -370 l-2 -187 75
0 c68 0 79 -3 122 -32 26 -18 49 -33 52 -33 2 0 32 24 65 53 38 33 77 57 104
64 107 29 229 143 289 272 l30 66 50 -3 c27 -2 70 3 98 12 27 9 53 16 58 16 4
0 16 -25 26 -55 l17 -56 -114 -127 c-127 -142 -142 -174 -102 -212 16 -15 30
-20 42 -16 40 16 410 232 429 251 20 20 134 342 151 429 8 37 12 40 212 153
112 63 238 137 280 165 108 72 255 224 329 338 33 52 75 111 91 131 62 74 77
151 88 452 7 208 -7 309 -28 195 -6 -38 -16 -83 -23 -113 -12 -44 -69 -165
-78 -165 -5 0 -8 -7 -8 -15 0 -19 -108 -129 -168 -173 -24 -17 -51 -29 -60
-26 -9 2 7 -7 36 -21 28 -13 52 -29 52 -34 0 -17 -76 -34 -122 -27 -119 18
-317 153 -398 271 -29 43 -66 132 -58 140 3 3 33 -17 67 -45 56 -45 91 -64 77
-41 -3 4 -1 32 4 62 9 52 11 65 26 134 14 67 80 165 199 294 65 71 88 104 79
114 -6 6 -49 -5 -169 -44 -134 -44 -202 -59 -280 -59 -81 0 -189 16 -225 33
-31 15 -38 56 -14 92 17 27 115 98 156 115 34 13 2 10 -67 -8z m-89 -509 c22
-27 66 -86 99 -132 33 -46 112 -134 175 -195 122 -118 122 -118 -10 -9 -101
83 -148 133 -230 244 -66 89 -96 139 -82 139 5 0 27 -21 48 -47z m-74 -672
c17 -7 -3 -10 -74 -10 -54 -1 -98 1 -98 4 0 24 117 28 172 6z m-138 -29 c3 -5
-19 -16 -49 -26 -117 -40 -201 -136 -212 -240 -6 -59 -23 -60 -23 -1 0 77 47
164 117 215 63 46 153 74 167 52z m409 -64 c23 -20 41 -47 46 -68 5 -19 12
-43 16 -53 4 -9 -21 11 -57 46 -35 36 -90 78 -123 95 -50 26 -56 31 -33 32 15
0 30 4 33 10 8 13 69 -19 118 -62z m-478 -45 c-16 -8 -46 -29 -65 -47 -34 -30
-34 -30 -10 -2 26 30 78 66 95 66 6 -1 -3 -8 -20 -17z m38 -25 c-11 -13 -24
-33 -28 -46 -4 -13 -27 -43 -51 -67 -35 -35 -44 -40 -44 -25 0 60 80 156 134
159 5 1 0 -9 -11 -21z m357 -34 c14 -13 27 -35 28 -49 2 -24 -2 -23 -64 27
-44 36 -61 54 -50 56 10 2 13 8 9 15 -9 16 45 -19 77 -49z m104 -279 c-23 -48
-69 -94 -119 -116 -64 -30 -75 -21 -15 12 72 39 105 72 127 126 10 24 19 37
21 29 2 -9 -4 -31 -14 -51z m-672 -205 c22 -16 37 -30 32 -30 -11 0 -84 48
-84 55 0 10 11 4 52 -25z"/>
</g>
</svg>
